<?xml version="1.0" standalone="no"?>
<!DOCTYPE svg PUBLIC "-//W3C//DTD SVG 20010904//EN"
 "http://www.w3.org/TR/2001/REC-SVG-20010904/DTD/svg10.dtd">
<svg version="1.0" xmlns="http://www.w3.org/2000/svg"
 width="900.000000pt" height="900.000000pt" viewBox="0 0 900.000000 900.000000"
 preserveAspectRatio="xMidYMid meet">

<g transform="translate(0.000000,900.000000) scale(0.100000,-0.100000)"
fill="#ffffff" stroke="none">
<path d="M3445 7870 c-174 -24 -359 -135 -474 -286 -29 -38 -74 -115 -101
-171 l-50 -102 -787 -3 -788 -3 -102 -36 c-229 -81 -392 -225 -493 -434 -93
-194 -84 40 -88 -2280 -2 -1404 1 -2076 8 -2131 42 -322 265 -590 580 -697
l95 -32 3255 0 3255 0 102 36 c111 39 184 79 271 149 154 124 270 327 302 530
13 88 14 4077 0 4175 -39 273 -216 516 -465 639 -170 85 -111 80 -997 83
l-787 4 -56 112 c-90 184 -200 299 -360 378 -161 79 -77 73 -1230 75 -566 1
-1057 -2 -1090 -6z m2082 -579 c49 -31 69 -65 179 -308 l102 -228 929 -5 c918
-5 928 -5 974 -26 53 -25 110 -80 136 -132 17 -35 18 -123 21 -2081 l2 -2044
-23 -51 c-29 -61 -75 -108 -136 -139 l-46 -22 -3165 0 -3165 0 -45 21 c-59 27
-107 76 -136 139 l-24 50 0 2036 0 2036 30 60 c32 63 72 101 138 131 34 15
120 17 966 22 l928 5 98 218 c108 243 130 281 179 314 l34 23 996 0 c967 0
997 -1 1028 -19z"/>
<path d="M1690 5905 l0 -285 280 0 280 0 0 285 0 285 -280 0 -280 0 0 -285z"/>
<path d="M4365 6183 c-259 -30 -416 -74 -607 -168 -449 -222 -773 -624 -898
-1113 -25 -101 -50 -293 -50 -391 0 -348 115 -705 318 -991 86 -122 271 -306
392 -392 573 -405 1314 -421 1900 -40 198 128 364 295 493 492 242 374 328
819 242 1246 -133 659 -631 1170 -1290 1322 -147 34 -375 50 -500 35z m336
-579 c238 -45 432 -146 595 -311 253 -255 364 -601 313 -969 -35 -254 -192
-528 -398 -694 -107 -87 -290 -181 -421 -216 -142 -38 -365 -44 -509 -14 -535
110 -901 557 -901 1098 0 197 34 340 121 515 74 150 191 287 332 393 127 94
334 182 482 203 102 15 296 12 386 -5z"/>
</g>
</svg>
