<svg version="1.0" xmlns="http://www.w3.org/2000/svg" width="1200" height="1200" viewBox="0 0 900 900"><g fill="#fff"><path d="M344.5 113c-17.4 2.4-35.9 13.5-47.4 28.6-2.9 3.8-7.4 11.5-10.1 17.1l-5 10.2-78.7.3-78.8.3-10.2 3.6c-22.9 8.1-39.2 22.5-49.3 43.4-9.3 19.4-8.4-4-8.8 228-.2 140.4.1 207.6.8 213.1 4.2 32.2 26.5 59 58 69.7l9.5 3.2h651l10.2-3.6c11.1-3.9 18.4-7.9 27.1-14.9 15.4-12.4 27-32.7 30.2-53 1.3-8.8 1.4-407.7 0-417.5-3.9-27.3-21.6-51.6-46.5-63.9-17-8.5-11.1-8-99.7-8.3l-78.7-.4-5.6-11.2c-9-18.4-20-29.9-36-37.8-16.1-7.9-7.7-7.3-123-7.5-56.6-.1-105.7.2-109 .6zm208.2 57.9c4.9 3.1 6.9 6.5 17.9 30.8l10.2 22.8 92.9.5c91.8.5 92.8.5 97.4 2.6 5.3 2.5 11 8 13.6 13.2 1.7 3.5 1.8 12.3 2.1 208.1l.2 204.4-2.3 5.1c-2.9 6.1-7.5 10.8-13.6 13.9l-4.6 2.2h-633l-4.5-2.1c-5.9-2.7-10.7-7.6-13.6-13.9l-2.4-5V246.3l3-6c3.2-6.3 7.2-10.1 13.8-13.1 3.4-1.5 12-1.7 96.6-2.2l92.8-.5 9.8-21.8c10.8-24.3 13-28.1 17.9-31.4l3.4-2.3h99.6c96.7 0 99.7.1 102.8 1.9z"/><path d="M169 309.5V338h56v-57h-56v28.5zM436.5 281.7c-25.9 3-41.6 7.4-60.7 16.8-44.9 22.2-77.3 62.4-89.8 111.3-2.5 10.1-5 29.3-5 39.1 0 34.8 11.5 70.5 31.8 99.1 8.6 12.2 27.1 30.6 39.2 39.2 57.3 40.5 131.4 42.1 190 4 19.8-12.8 36.4-29.5 49.3-49.2 24.2-37.4 32.8-81.9 24.2-124.6-13.3-65.9-63.1-117-129-132.2-14.7-3.4-37.5-5-50-3.5zm33.6 57.9c23.8 4.5 43.2 14.6 59.5 31.1 25.3 25.5 36.4 60.1 31.3 96.9-3.5 25.4-19.2 52.8-39.8 69.4-10.7 8.7-29 18.1-42.1 21.6-14.2 3.8-36.5 4.4-50.9 1.4-53.5-11-90.1-55.7-90.1-109.8 0-19.7 3.4-34 12.1-51.5 7.4-15 19.1-28.7 33.2-39.3 12.7-9.4 33.4-18.2 48.2-20.3 10.2-1.5 29.6-1.2 38.6.5z"/></g></svg>