<svg version="1.0" xmlns="http://www.w3.org/2000/svg" width="100" height="77.333" viewBox="0 0 1024 1024"><g fill="#fff"><path d="M243.5 38.5c-53.9 7.1-99.7 30.2-137.7 69.3-34.5 35.6-55.6 78.4-63.5 129.2-1.7 10.9-1.8 26.3-1.8 275s.1 264.1 1.8 275c7.9 50.8 29 93.5 63.7 129.4 38.2 39.4 84.4 62.4 139 69.2 17.8 2.2 517 2.1 535-.1 26.5-3.3 49.8-10.3 73.5-21.9 24.1-11.9 41.5-24.3 60.9-43.4 18.7-18.5 32.3-37.1 44.2-60.5 11.3-22.1 18-42.7 22.6-69.2l2.3-13V513c0-294.3.5-270.9-6.7-300-20.3-82.1-85.9-148.3-167.5-169-27.4-6.9-2.8-6.4-293.3-6.6-211.9-.2-264.4.1-272.5 1.1zm527 60.5c40.8 4.7 76.1 22.2 104.5 51.7 28.9 29.9 44.8 65.7 48 107.6 1.2 15.4 1.4 372.7.3 372.7-.5 0-39.7-32.7-87.3-72.6-49-41.2-88.4-73.6-91-74.8-6.9-3.2-18.8-2.9-25.6.6-3.9 2.1-24.4 22.1-88 86.3L548.5 654 428.3 533.1C335 439.3 307 411.7 303.3 409.9c-6.8-3.3-18.8-3.3-25.6 0-3.7 1.8-24.5 22.2-91.2 89.5L100 586.5V423.7c0-108.7.4-166 1.1-172.5 2.3-21.1 7.7-39.2 17.4-58.7 22.1-44 61.7-76.5 108.7-89 20.9-5.6 7-5.3 280.8-5.4 167.4-.1 256.5.3 262.5.9zM410.1 600.4c64.9 65.5 119.5 120 121.4 121.3 5 3.4 14.8 5.7 20.9 4.8 11.4-1.5 8.5 1.1 98.2-89.2l84-84.7 94 78.9c51.6 43.4 94.2 79.3 94.6 79.9 1.1 1.6 1 39.1-.2 54.3-1.9 24.2-7.4 44.5-18.1 65.8-7.7 15.5-16.8 28.2-29.9 41.8-28.4 29.5-63.7 47-104.5 51.7-12.4 1.4-504.6 1.4-517 0-72.6-8.3-130.4-58.9-148.5-129.8-4.2-16.7-5-28.7-5-77v-45.8l95.1-95.7c52.3-52.7 95.5-95.7 96-95.5.5.2 54 53.8 119 119.2z"/><path d="M620.1 186.6c-44.3 7.4-81.9 40.5-95.9 84.4-3.9 12.4-5.5 22.8-5.5 37 0 14.1 1.6 24.6 5.5 37 14 44.1 51.9 77.2 96.8 84.5 60.3 9.7 118-26 136.5-84.7 10.2-32.4 5.9-70.6-11.3-99.3-26.3-44.1-76-67.3-126.1-58.9zm35.3 61.4c29.4 7.5 49.8 35.5 47.2 64.9-3.5 39.4-41.8 66.3-78.8 55.5-37.3-11-55.5-53-38.2-88 8.6-17.4 24.8-29.4 45.9-33.8 5.4-1.1 16.8-.4 23.9 1.4z"/></g></svg>