<?xml version="1.0" standalone="no"?>
<!DOCTYPE svg PUBLIC "-//W3C//DTD SVG 20010904//EN"
 "http://www.w3.org/TR/2001/REC-SVG-20010904/DTD/svg10.dtd">
<svg version="1.0" xmlns="http://www.w3.org/2000/svg"
 width="75.000000pt" height="58.000000pt" viewBox="0 0 1024.000000 1024.000000"
 preserveAspectRatio="xMidYMid meet">

<g transform="translate(0.000000,1024.000000) scale(0.100000,-0.100000)"
fill="#ffffff" stroke="none">
<path d="M2435 9855 c-539 -71 -997 -302 -1377 -693 -345 -356 -556 -784 -635
-1292 -17 -109 -18 -263 -18 -2750 0 -2487 1 -2641 18 -2750 79 -508 290 -935
637 -1294 382 -394 844 -624 1390 -692 178 -22 5170 -21 5350 1 265 33 498
103 735 219 241 119 415 243 609 434 187 185 323 371 442 605 113 221 180 427
226 692 l23 130 0 2645 c0 2943 5 2709 -67 3000 -203 821 -859 1483 -1675
1690 -274 69 -28 64 -2933 66 -2119 2 -2644 -1 -2725 -11z m5270 -605 c408
-47 761 -222 1045 -517 289 -299 448 -657 480 -1076 12 -154 14 -3727 3 -3727
-5 0 -397 327 -873 726 -490 412 -884 736 -910 748 -69 32 -188 29 -256 -6
-39 -21 -244 -221 -880 -863 l-829 -835 -1202 1209 c-933 938 -1213 1214
-1250 1232 -68 33 -188 33 -256 0 -37 -18 -245 -222 -912 -895 l-865 -871 0
1628 c0 1087 4 1660 11 1725 23 211 77 392 174 587 221 440 617 765 1087 890
209 56 70 53 2808 54 1674 1 2565 -3 2625 -9z m-3604 -5014 c649 -655 1195
-1200 1214 -1213 50 -34 148 -57 209 -48 114 15 85 -11 982 892 l840 847 940
-789 c516 -434 942 -793 946 -799 11 -16 10 -391 -2 -543 -19 -242 -74 -445
-181 -658 -77 -155 -168 -282 -299 -418 -284 -295 -637 -470 -1045 -517 -124
-14 -5046 -14 -5170 0 -726 83 -1304 589 -1485 1298 -42 167 -50 287 -50 770
l0 458 951 957 c523 527 955 957 960 955 5 -2 540 -538 1190 -1192z"/>
<path d="M6201 8374 c-443 -74 -819 -405 -959 -844 -39 -124 -55 -228 -55
-370 0 -141 16 -246 55 -370 140 -441 519 -772 968 -845 603 -97 1180 260
1365 847 102 324 59 706 -113 993 -263 441 -760 673 -1261 589z m353 -614
c294 -75 498 -355 472 -649 -35 -394 -418 -663 -788 -555 -373 110 -555 530
-382 880 86 174 248 294 459 338 54 11 168 4 239 -14z"/>
</g>
</svg>
