<svg version="1.0" xmlns="http://www.w3.org/2000/svg" width="1200" height="1200" viewBox="0 0 900 900"><path d="M607.1 203C530 280 466.6 343 466.3 343c-.2 0-2.6 2.2-5.3 5-3 3.2-5.7 5-7.1 5-1.7 0-38.6-36.3-146.6-144.3C228 129.4 162.4 64.4 161.7 64.2c-1.5-.3-88.9 86.3-90 89.2-.8 2.1-5.8-3 162.5 165.5C332.1 416.8 360 445.2 360 447.1c0 1.4-.8 3.2-1.7 4.1-1 .9-9.1 9-18.1 18.1-9 9.1-18.1 18.1-20.3 20-2.1 2-3.9 3.7-3.9 4 0 .7-35.9 36.2-37 36.5-.5.2-1 1-1 1.8s-.3 1.4-.8 1.4c-.9 0 5.7-6.6-79.5 78.8-40.6 40.7-74.8 74.9-76 76-1.2 1.1-5.3 5.2-9.1 9.1-3.7 3.9-7.2 7.1-7.7 7.1s-.9.4-.9.8-2.3 3-5 5.7c-2.8 2.8-8.3 8.3-12.3 12.4-4 4-9.1 9.2-11.4 11.4-2.4 2.2-4.3 4.6-4.3 5.3 0 .7 6.4 7.7 14.1 15.6 15.2 15.4 52.1 53.3 65.9 67.9 4.7 4.9 9.3 8.9 10.2 8.9 1 0 66.2-64.4 146.7-145 79.7-79.7 145.4-145 146-145 .6 0 3.7 2.6 6.9 5.8 11.1 10.7 229.6 228.1 257.7 256.2 15.4 15.4 28.6 28 29.3 28 .8 0 22.1-20.7 47.4-46l46.1-46-1.9-2.2c-2.4-2.6-67.4-67.6-76.6-76.5-3.8-3.6-6.8-6.6-6.8-6.8 0-.6-36.1-36-37-36.3-.6-.2-1-.8-1-1.3 0-.6-1.2-2.1-2.7-3.5-4.2-3.8-35.3-34.7-35.3-35.1 0-.4-3.9-4.3-4.4-4.3-.7 0-36.6-36.4-36.6-37.2 0-.4-.4-.8-.8-.8-1.7 0-88.2-87.3-88.2-88.9 0-1.3 10.4-13.1 11.6-13.1.7 0 7.4-7.1 7.4-8 0-.4.4-1 1-1.2 1.1-.3 15.9-14.8 23.8-23.2 2.9-3.1 5.5-5.6 5.8-5.6.2 0 2.2-1.9 4.5-4.3 7.5-7.8 33.7-34.2 37.6-37.8 2.1-2 8.4-8.3 14-14 5.6-5.7 14.1-14.3 19-19.1 4.8-4.7 13.4-13.3 19-19 5.6-5.6 22.6-22.7 37.7-37.8 15.2-15.1 27.6-27.5 27.6-27.6 0 0 8.1-8.2 18.1-18 10-9.8 18.6-18.4 19.3-19.1.6-.6 4.9-5 9.5-9.7 4.7-4.7 8.8-8.6 9.3-8.6.4 0 .8-.4.8-.9 0-.4 5.7-6.5 12.8-13.5l12.7-12.7-22-21.5c-12.1-11.8-23.5-22.8-25.2-24.3-1.8-1.6-3.3-3.1-3.3-3.4 0-.4-11.1-11.7-11.6-11.7-.1 0-7-6.8-15.3-15-8.3-8.3-15.5-15-16-15-.4 0-63.9 63-141 140z" fill="#fc440f"/></svg>